<mxfile host="app.diagrams.net" modified="2022-04-07T17:53:09.522Z" agent="5.0 (Windows NT 10.0; Win64; x64) AppleWebKit/537.36 (KHTML, like Gecko) Chrome/99.0.4844.51 Safari/537.36" etag="iqX01j45zz0ow0bQqSw0" version="17.2.4" type="github">
  <diagram id="o93-lDI3VRqirDcKDXZ2" name="Page-1">
    <mxGraphModel dx="1022" dy="436" grid="1" gridSize="10" guides="1" tooltips="1" connect="1" arrows="1" fold="1" page="1" pageScale="1" pageWidth="827" pageHeight="1169" math="0" shadow="0">
      <root>
        <mxCell id="0" />
        <mxCell id="1" parent="0" />
        <mxCell id="NgrMlDk98fqjrmkA6Xaf-1" value="start" style="html=1;dashed=0;whitespace=wrap;shape=mxgraph.dfd.start" vertex="1" parent="1">
          <mxGeometry x="150" y="40" width="80" height="30" as="geometry" />
        </mxCell>
        <mxCell id="NgrMlDk98fqjrmkA6Xaf-2" value="end" style="html=1;dashed=0;whitespace=wrap;shape=mxgraph.dfd.start" vertex="1" parent="1">
          <mxGeometry x="145" y="1350" width="80" height="30" as="geometry" />
        </mxCell>
        <mxCell id="NgrMlDk98fqjrmkA6Xaf-3" value="input a[11],&lt;br&gt;i = 0" style="shape=parallelogram;perimeter=parallelogramPerimeter;whiteSpace=wrap;html=1;dashed=0;" vertex="1" parent="1">
          <mxGeometry x="140" y="91" width="100" height="50" as="geometry" />
        </mxCell>
        <mxCell id="NgrMlDk98fqjrmkA6Xaf-5" value="i &amp;lt; 11" style="rhombus;whiteSpace=wrap;html=1;" vertex="1" parent="1">
          <mxGeometry x="145" y="160" width="80" height="60" as="geometry" />
        </mxCell>
        <mxCell id="NgrMlDk98fqjrmkA6Xaf-6" value="" style="endArrow=classic;html=1;rounded=0;exitX=0.5;exitY=1;exitDx=0;exitDy=0;" edge="1" parent="1" source="NgrMlDk98fqjrmkA6Xaf-5">
          <mxGeometry relative="1" as="geometry">
            <mxPoint x="200" y="260" as="sourcePoint" />
            <mxPoint x="185" y="260" as="targetPoint" />
          </mxGeometry>
        </mxCell>
        <mxCell id="NgrMlDk98fqjrmkA6Xaf-7" value="Yes" style="edgeLabel;resizable=0;html=1;align=center;verticalAlign=middle;" connectable="0" vertex="1" parent="NgrMlDk98fqjrmkA6Xaf-6">
          <mxGeometry relative="1" as="geometry">
            <mxPoint y="-5" as="offset" />
          </mxGeometry>
        </mxCell>
        <mxCell id="NgrMlDk98fqjrmkA6Xaf-8" value="" style="endArrow=classic;html=1;rounded=0;exitX=0;exitY=0.5;exitDx=0;exitDy=0;entryX=0.5;entryY=0;entryDx=0;entryDy=0;" edge="1" parent="1" source="NgrMlDk98fqjrmkA6Xaf-5">
          <mxGeometry relative="1" as="geometry">
            <mxPoint x="145" y="-158" as="sourcePoint" />
            <mxPoint x="185" y="432" as="targetPoint" />
            <Array as="points">
              <mxPoint x="90" y="190" />
              <mxPoint x="90" y="412" />
              <mxPoint x="185" y="412" />
            </Array>
          </mxGeometry>
        </mxCell>
        <mxCell id="NgrMlDk98fqjrmkA6Xaf-9" value="No" style="edgeLabel;resizable=0;html=1;align=center;verticalAlign=middle;" connectable="0" vertex="1" parent="NgrMlDk98fqjrmkA6Xaf-8">
          <mxGeometry relative="1" as="geometry">
            <mxPoint x="27" y="-141" as="offset" />
          </mxGeometry>
        </mxCell>
        <mxCell id="NgrMlDk98fqjrmkA6Xaf-11" value="" style="endArrow=classic;html=1;rounded=0;exitX=0.5;exitY=1;exitDx=0;exitDy=0;entryX=0.5;entryY=0;entryDx=0;entryDy=0;" edge="1" parent="1" source="NgrMlDk98fqjrmkA6Xaf-57">
          <mxGeometry relative="1" as="geometry">
            <mxPoint x="185" y="295" as="sourcePoint" />
            <mxPoint x="185" y="337" as="targetPoint" />
          </mxGeometry>
        </mxCell>
        <mxCell id="NgrMlDk98fqjrmkA6Xaf-13" value="i &amp;lt;= 5" style="rhombus;whiteSpace=wrap;html=1;" vertex="1" parent="1">
          <mxGeometry x="145" y="497" width="80" height="60" as="geometry" />
        </mxCell>
        <mxCell id="NgrMlDk98fqjrmkA6Xaf-14" value="" style="endArrow=classic;html=1;rounded=0;exitX=0;exitY=0.5;exitDx=0;exitDy=0;" edge="1" parent="1">
          <mxGeometry relative="1" as="geometry">
            <mxPoint x="145" y="526.5" as="sourcePoint" />
            <mxPoint x="185" y="700" as="targetPoint" />
            <Array as="points">
              <mxPoint x="110" y="527" />
              <mxPoint x="110" y="680" />
              <mxPoint x="185" y="680" />
            </Array>
          </mxGeometry>
        </mxCell>
        <mxCell id="NgrMlDk98fqjrmkA6Xaf-15" value="No" style="edgeLabel;resizable=0;html=1;align=center;verticalAlign=middle;" connectable="0" vertex="1" parent="NgrMlDk98fqjrmkA6Xaf-14">
          <mxGeometry relative="1" as="geometry">
            <mxPoint x="18" y="-98" as="offset" />
          </mxGeometry>
        </mxCell>
        <mxCell id="NgrMlDk98fqjrmkA6Xaf-16" value="" style="endArrow=classic;html=1;rounded=0;exitX=0.5;exitY=1;exitDx=0;exitDy=0;entryX=0.5;entryY=0;entryDx=0;entryDy=0;" edge="1" parent="1" target="NgrMlDk98fqjrmkA6Xaf-19">
          <mxGeometry relative="1" as="geometry">
            <mxPoint x="184.76" y="557" as="sourcePoint" />
            <mxPoint x="184.76" y="588" as="targetPoint" />
          </mxGeometry>
        </mxCell>
        <mxCell id="NgrMlDk98fqjrmkA6Xaf-17" value="Yes" style="edgeLabel;resizable=0;html=1;align=center;verticalAlign=middle;" connectable="0" vertex="1" parent="NgrMlDk98fqjrmkA6Xaf-16">
          <mxGeometry relative="1" as="geometry">
            <mxPoint y="-5" as="offset" />
          </mxGeometry>
        </mxCell>
        <mxCell id="NgrMlDk98fqjrmkA6Xaf-18" value="&lt;span&gt;i++&lt;/span&gt;" style="rounded=1;whiteSpace=wrap;html=1;" vertex="1" parent="1">
          <mxGeometry x="137.5" y="338" width="95" height="42" as="geometry" />
        </mxCell>
        <mxCell id="NgrMlDk98fqjrmkA6Xaf-19" value="res = a[i]&lt;br&gt;a[i] = a[11-i]&lt;br&gt;a[11-i] = res&lt;br&gt;i++" style="rounded=1;whiteSpace=wrap;html=1;" vertex="1" parent="1">
          <mxGeometry x="137.5" y="587" width="95" height="63" as="geometry" />
        </mxCell>
        <mxCell id="NgrMlDk98fqjrmkA6Xaf-21" value="i = 0" style="rounded=0;whiteSpace=wrap;html=1;" vertex="1" parent="1">
          <mxGeometry x="137.5" y="701" width="95" height="40" as="geometry" />
        </mxCell>
        <mxCell id="NgrMlDk98fqjrmkA6Xaf-22" value="" style="endArrow=classic;html=1;rounded=0;exitX=0.5;exitY=1;exitDx=0;exitDy=0;entryX=1;entryY=0.5;entryDx=0;entryDy=0;" edge="1" parent="1" source="NgrMlDk98fqjrmkA6Xaf-19" target="NgrMlDk98fqjrmkA6Xaf-13">
          <mxGeometry width="50" height="50" relative="1" as="geometry">
            <mxPoint x="110" y="577" as="sourcePoint" />
            <mxPoint x="160" y="527" as="targetPoint" />
            <Array as="points">
              <mxPoint x="185" y="670" />
              <mxPoint x="250" y="670" />
              <mxPoint x="250" y="527" />
            </Array>
          </mxGeometry>
        </mxCell>
        <mxCell id="NgrMlDk98fqjrmkA6Xaf-26" value="" style="endArrow=classic;html=1;rounded=0;entryX=1;entryY=0.5;entryDx=0;entryDy=0;exitX=0.5;exitY=1;exitDx=0;exitDy=0;" edge="1" parent="1">
          <mxGeometry width="50" height="50" relative="1" as="geometry">
            <mxPoint x="185" y="380" as="sourcePoint" />
            <mxPoint x="225" y="190" as="targetPoint" />
            <Array as="points">
              <mxPoint x="185" y="400" />
              <mxPoint x="300" y="400" />
              <mxPoint x="300" y="190" />
            </Array>
          </mxGeometry>
        </mxCell>
        <mxCell id="NgrMlDk98fqjrmkA6Xaf-53" value="" style="endArrow=classic;html=1;rounded=0;exitX=0.5;exitY=0.5;exitDx=0;exitDy=15;exitPerimeter=0;entryX=0.5;entryY=0;entryDx=0;entryDy=0;" edge="1" parent="1" source="NgrMlDk98fqjrmkA6Xaf-1" target="NgrMlDk98fqjrmkA6Xaf-3">
          <mxGeometry width="50" height="50" relative="1" as="geometry">
            <mxPoint x="185" y="150" as="sourcePoint" />
            <mxPoint x="235" y="100" as="targetPoint" />
          </mxGeometry>
        </mxCell>
        <mxCell id="NgrMlDk98fqjrmkA6Xaf-54" value="" style="endArrow=classic;html=1;rounded=0;exitX=0.453;exitY=1.044;exitDx=0;exitDy=0;exitPerimeter=0;entryX=0.5;entryY=0;entryDx=0;entryDy=0;" edge="1" parent="1" source="NgrMlDk98fqjrmkA6Xaf-3">
          <mxGeometry width="50" height="50" relative="1" as="geometry">
            <mxPoint x="185" y="150" as="sourcePoint" />
            <mxPoint x="185" y="160" as="targetPoint" />
          </mxGeometry>
        </mxCell>
        <mxCell id="NgrMlDk98fqjrmkA6Xaf-56" value="Task 1 part 1" style="text;html=1;align=center;verticalAlign=middle;resizable=0;points=[];autosize=1;strokeColor=none;fillColor=none;" vertex="1" parent="1">
          <mxGeometry x="150" y="10" width="80" height="20" as="geometry" />
        </mxCell>
        <mxCell id="NgrMlDk98fqjrmkA6Xaf-57" value="&amp;nbsp;a[i]" style="shape=parallelogram;perimeter=parallelogramPerimeter;whiteSpace=wrap;html=1;dashed=0;" vertex="1" parent="1">
          <mxGeometry x="135" y="260" width="100" height="50" as="geometry" />
        </mxCell>
        <mxCell id="NgrMlDk98fqjrmkA6Xaf-61" value="&lt;span&gt;i = 0&lt;/span&gt;" style="rounded=1;whiteSpace=wrap;html=1;" vertex="1" parent="1">
          <mxGeometry x="137.5" y="430" width="95" height="42" as="geometry" />
        </mxCell>
        <mxCell id="NgrMlDk98fqjrmkA6Xaf-62" value="" style="endArrow=classic;html=1;rounded=0;exitX=0.5;exitY=1;exitDx=0;exitDy=0;entryX=0.5;entryY=0;entryDx=0;entryDy=0;" edge="1" parent="1" source="NgrMlDk98fqjrmkA6Xaf-61" target="NgrMlDk98fqjrmkA6Xaf-13">
          <mxGeometry width="50" height="50" relative="1" as="geometry">
            <mxPoint x="390" y="650" as="sourcePoint" />
            <mxPoint x="440" y="600" as="targetPoint" />
          </mxGeometry>
        </mxCell>
        <mxCell id="NgrMlDk98fqjrmkA6Xaf-63" value="i &amp;lt; 11" style="rhombus;whiteSpace=wrap;html=1;" vertex="1" parent="1">
          <mxGeometry x="145" y="780" width="80" height="60" as="geometry" />
        </mxCell>
        <mxCell id="NgrMlDk98fqjrmkA6Xaf-64" value="" style="endArrow=classic;html=1;rounded=0;exitX=0.5;exitY=1;exitDx=0;exitDy=0;" edge="1" parent="1" source="NgrMlDk98fqjrmkA6Xaf-63">
          <mxGeometry relative="1" as="geometry">
            <mxPoint x="200" y="880" as="sourcePoint" />
            <mxPoint x="185" y="880" as="targetPoint" />
          </mxGeometry>
        </mxCell>
        <mxCell id="NgrMlDk98fqjrmkA6Xaf-65" value="Yes" style="edgeLabel;resizable=0;html=1;align=center;verticalAlign=middle;" connectable="0" vertex="1" parent="NgrMlDk98fqjrmkA6Xaf-64">
          <mxGeometry relative="1" as="geometry">
            <mxPoint y="-5" as="offset" />
          </mxGeometry>
        </mxCell>
        <mxCell id="NgrMlDk98fqjrmkA6Xaf-66" value="" style="endArrow=classic;html=1;rounded=0;exitX=0;exitY=0.5;exitDx=0;exitDy=0;entryX=0.5;entryY=0.5;entryDx=0;entryDy=-15;entryPerimeter=0;" edge="1" parent="1" source="NgrMlDk98fqjrmkA6Xaf-63" target="NgrMlDk98fqjrmkA6Xaf-2">
          <mxGeometry relative="1" as="geometry">
            <mxPoint x="145" y="462" as="sourcePoint" />
            <mxPoint x="60" y="1140" as="targetPoint" />
            <Array as="points">
              <mxPoint x="60" y="810" />
              <mxPoint x="60" y="1032" />
              <mxPoint x="60" y="1320" />
              <mxPoint x="185" y="1320" />
            </Array>
          </mxGeometry>
        </mxCell>
        <mxCell id="NgrMlDk98fqjrmkA6Xaf-67" value="No" style="edgeLabel;resizable=0;html=1;align=center;verticalAlign=middle;" connectable="0" vertex="1" parent="NgrMlDk98fqjrmkA6Xaf-66">
          <mxGeometry relative="1" as="geometry">
            <mxPoint x="53" y="-118" as="offset" />
          </mxGeometry>
        </mxCell>
        <mxCell id="NgrMlDk98fqjrmkA6Xaf-68" value="" style="endArrow=classic;html=1;rounded=0;exitX=0.5;exitY=1;exitDx=0;exitDy=0;entryX=0.5;entryY=0;entryDx=0;entryDy=0;startArrow=none;" edge="1" parent="1" source="NgrMlDk98fqjrmkA6Xaf-75">
          <mxGeometry relative="1" as="geometry">
            <mxPoint x="185" y="930" as="sourcePoint" />
            <mxPoint x="185" y="957" as="targetPoint" />
          </mxGeometry>
        </mxCell>
        <mxCell id="NgrMlDk98fqjrmkA6Xaf-69" value="&lt;span&gt;i++&lt;/span&gt;" style="rounded=1;whiteSpace=wrap;html=1;" vertex="1" parent="1">
          <mxGeometry x="137.5" y="1210" width="95" height="42" as="geometry" />
        </mxCell>
        <mxCell id="NgrMlDk98fqjrmkA6Xaf-70" value="" style="endArrow=classic;html=1;rounded=0;entryX=1;entryY=0.5;entryDx=0;entryDy=0;exitX=0.5;exitY=1;exitDx=0;exitDy=0;" edge="1" parent="1" source="NgrMlDk98fqjrmkA6Xaf-69">
          <mxGeometry width="50" height="50" relative="1" as="geometry">
            <mxPoint x="260" y="1150" as="sourcePoint" />
            <mxPoint x="225" y="810" as="targetPoint" />
            <Array as="points">
              <mxPoint x="185" y="1290" />
              <mxPoint x="300" y="1290" />
              <mxPoint x="300" y="1020" />
              <mxPoint x="300" y="810" />
            </Array>
          </mxGeometry>
        </mxCell>
        <mxCell id="NgrMlDk98fqjrmkA6Xaf-74" value="" style="endArrow=classic;html=1;rounded=0;exitX=0.5;exitY=1;exitDx=0;exitDy=0;entryX=0.5;entryY=0;entryDx=0;entryDy=0;" edge="1" parent="1" source="NgrMlDk98fqjrmkA6Xaf-21" target="NgrMlDk98fqjrmkA6Xaf-63">
          <mxGeometry width="50" height="50" relative="1" as="geometry">
            <mxPoint x="370" y="690" as="sourcePoint" />
            <mxPoint x="420" y="640" as="targetPoint" />
          </mxGeometry>
        </mxCell>
        <mxCell id="NgrMlDk98fqjrmkA6Xaf-75" value="&lt;span style=&quot;color: rgb(44 , 45 , 48) ; font-family: &amp;#34;roboto&amp;#34; , &amp;#34;san francisco&amp;#34; , &amp;#34;helvetica neue&amp;#34; , &amp;#34;helvetica&amp;#34; , &amp;#34;arial&amp;#34; ; font-size: 15px ; text-align: left ; background-color: rgb(255 , 255 , 255)&quot;&gt;a[i] = sqrt(fabs(a[i])) + 5 * pow(a[i], 3)&lt;/span&gt;" style="rounded=1;whiteSpace=wrap;html=1;" vertex="1" parent="1">
          <mxGeometry x="80" y="880" width="210" height="40" as="geometry" />
        </mxCell>
        <mxCell id="NgrMlDk98fqjrmkA6Xaf-86" value="a[i] &amp;gt; 400" style="rhombus;whiteSpace=wrap;html=1;" vertex="1" parent="1">
          <mxGeometry x="145" y="958" width="80" height="60" as="geometry" />
        </mxCell>
        <mxCell id="NgrMlDk98fqjrmkA6Xaf-87" value="" style="endArrow=classic;html=1;rounded=0;exitX=0.5;exitY=1;exitDx=0;exitDy=0;" edge="1" parent="1">
          <mxGeometry relative="1" as="geometry">
            <mxPoint x="185" y="1018" as="sourcePoint" />
            <mxPoint x="185" y="1058" as="targetPoint" />
          </mxGeometry>
        </mxCell>
        <mxCell id="NgrMlDk98fqjrmkA6Xaf-88" value="Yes" style="edgeLabel;resizable=0;html=1;align=center;verticalAlign=middle;" connectable="0" vertex="1" parent="NgrMlDk98fqjrmkA6Xaf-87">
          <mxGeometry relative="1" as="geometry">
            <mxPoint y="-5" as="offset" />
          </mxGeometry>
        </mxCell>
        <mxCell id="NgrMlDk98fqjrmkA6Xaf-89" value="&lt;span style=&quot;color: rgb(44 , 45 , 48) ; font-family: &amp;#34;roboto&amp;#34; , &amp;#34;san francisco&amp;#34; , &amp;#34;helvetica neue&amp;#34; , &amp;#34;helvetica&amp;#34; , &amp;#34;arial&amp;#34; ; font-size: 15px ; text-align: left ; background-color: rgb(255 , 255 , 255)&quot;&gt;print: &quot;element i is greater,&lt;br&gt;then 400&quot;&lt;/span&gt;" style="rounded=1;whiteSpace=wrap;html=1;" vertex="1" parent="1">
          <mxGeometry x="80" y="1060" width="210" height="40" as="geometry" />
        </mxCell>
        <mxCell id="NgrMlDk98fqjrmkA6Xaf-90" value="" style="endArrow=classic;html=1;rounded=0;exitX=0.5;exitY=1;exitDx=0;exitDy=0;entryX=0.5;entryY=0;entryDx=0;entryDy=0;" edge="1" parent="1" source="NgrMlDk98fqjrmkA6Xaf-89" target="NgrMlDk98fqjrmkA6Xaf-91">
          <mxGeometry width="50" height="50" relative="1" as="geometry">
            <mxPoint x="370" y="1050" as="sourcePoint" />
            <mxPoint x="193" y="1150" as="targetPoint" />
          </mxGeometry>
        </mxCell>
        <mxCell id="NgrMlDk98fqjrmkA6Xaf-91" value="" style="rhombus;whiteSpace=wrap;html=1;" vertex="1" parent="1">
          <mxGeometry x="170" y="1150" width="30" height="30" as="geometry" />
        </mxCell>
        <mxCell id="NgrMlDk98fqjrmkA6Xaf-92" value="" style="endArrow=classic;html=1;rounded=0;exitX=0;exitY=0.5;exitDx=0;exitDy=0;entryX=0;entryY=0.5;entryDx=0;entryDy=0;" edge="1" parent="1" target="NgrMlDk98fqjrmkA6Xaf-91">
          <mxGeometry relative="1" as="geometry">
            <mxPoint x="145" y="988" as="sourcePoint" />
            <mxPoint x="60" y="1318" as="targetPoint" />
            <Array as="points">
              <mxPoint x="70" y="988" />
              <mxPoint x="70" y="1165" />
            </Array>
          </mxGeometry>
        </mxCell>
        <mxCell id="NgrMlDk98fqjrmkA6Xaf-93" value="No" style="edgeLabel;resizable=0;html=1;align=center;verticalAlign=middle;" connectable="0" vertex="1" parent="NgrMlDk98fqjrmkA6Xaf-92">
          <mxGeometry relative="1" as="geometry">
            <mxPoint x="45" y="-278" as="offset" />
          </mxGeometry>
        </mxCell>
        <mxCell id="NgrMlDk98fqjrmkA6Xaf-94" value="" style="endArrow=classic;html=1;rounded=0;exitX=0.5;exitY=1;exitDx=0;exitDy=0;entryX=0.5;entryY=0;entryDx=0;entryDy=0;" edge="1" parent="1" source="NgrMlDk98fqjrmkA6Xaf-91" target="NgrMlDk98fqjrmkA6Xaf-69">
          <mxGeometry width="50" height="50" relative="1" as="geometry">
            <mxPoint x="330" y="1160" as="sourcePoint" />
            <mxPoint x="380" y="1110" as="targetPoint" />
          </mxGeometry>
        </mxCell>
      </root>
    </mxGraphModel>
  </diagram>
</mxfile>
